<?xml version="1.0" encoding="UTF-8"?> <!-- Generator: Adobe Illustrator 23.0.3, SVG Export Plug-In . SVG Version: 6.00 Build 0) --> <svg xmlns="http://www.w3.org/2000/svg" xmlns:xlink="http://www.w3.org/1999/xlink" id="Layer_1" x="0px" y="0px" viewBox="0 0 1072.5 758.1" style="enable-background:new 0 0 1072.5 758.1;" xml:space="preserve"> <style type="text/css"> .st0{opacity:0.4;} .st1{fill:#FFFFFF;} </style> <g class="st0"> <g> <path class="st1" d="M482.4,138.3c26.9-11.9,27.8,0.2,56.3,0c20.9-0.2,46.4-8.9,66.2-3.2c10.6,3.1,29.5,2.6,33.7,0.3 c16.2-9.9,36.7-11.1,55.1-13.1c16.8-1.8,32.1-8.8,48.7-10.3c13.8-1.3,29.5,3.9,43.2,5.1c32.7,3,65.4,1.5,98.4,4.4 c53.9,4.7,115.5-2.6,167.3,16c38.9,14,17.6,21.3-11,24.8c-25.9,3.2-52.7,1.3-78.7-1.1c-40.6-3.8-76.7-4.4-117.5-9 c-48.1-5.4-103.3-4.1-151.2,0.4c-27.2,2.6-53.2,6.4-80.6,5.7c-20.9-0.5-43.4-6.3-63.8-5c4.7,24.2,28.1,40.6,42.4,59 c19.4,25,39.1,48.5,60.6,72c17.7,19.3,32.9,40.8,50.2,60.3c7.1,7.9,19.3,15.7,22.1,26c2.1,7.9,2.2,11.1,1.9,13.1 c-0.6,3.5,1.8,6.8,5.2,7.6c21.6,4.8,23.5,13.9,37.8,31.8c15.8,19.9,35.3,36.1,51.1,56.4c21.1,27.1,43.8,52.8,63.2,81.3 c21.4,31.3,14.6,62.4-20.5,24.2C821,539.9,789.7,497.6,748,454.4c-9.4-9.7-33.9-26.3-38.3-38.7c-3-8.4,1.1-20.1-2.4-30.7 c-12.7-38.1-24-5.8-33-19.7c-6.1-16.1-38.7-54.1-52.2-68c-14-14.5-26.7-30.7-41.2-45.2c-9.5-9.5-18.1-25.2-25.7-33.2l-0.9-8.5 c-3.8-3.1-7.8-4-12.2-2.8C526.2,199,490.6,160.8,482.4,138.3z"></path> </g> <g> <path class="st1" d="M658.1,17.9c15.5-1.5,25.4-11,40.9-13.9c16.3-3.1,36.5-4.4,53.1-3.8c14.6,0.5,28.7,3.3,42.4,7.8 c6.3,2.1,39.4,21.2,39.8,21c-56.4,21.6-126.2-1.5-186.1,3.9c-77.1,7-153.9,7.4-231,11.4C355.1,47.5,294.2,57,231.8,62.9 c-60.5,5.7-130.2,14.5-189.9,2.3C16.4,60-28.2,44.5,24.7,35.8c31.4-5.2,67.2,1.6,98.9,2.1c41.3,0.7,80-3.9,120.6-9.6 c20.4-2.9,40.2-11.2,58.3-15.2c8.5-1.8,24.3,1,34.7-0.6c16.3-2.5,34.1-6.7,50.6-7.1c33.5-0.8,68.4,3,102.2,3.3 c29.7,0.3,61.8,6.4,91.2,5.3c10.6-0.4,25.5-3.6,35.4-7.2c5.9-2.1,17-3.2,20.8-3C641.3,4.1,638.6,18.5,658.1,17.9z"></path> </g> <g> <path class="st1" d="M244.4,716.8c94.7,10.4,195.5,6.5,290.9,5.3c11-0.1,30.4-5.4,40.2-3.1c4.1,0.9,10.1,10,12.5,10 c14.3,0.2,28.6-8.5,43-10.9c3.8-0.6,10.4-4.5,14.5-5.1c2.9-0.4,7.2,5.4,10.8,5c16.5-1.9,33.7-8.2,50.6-10.9 c16.6-2.6,20.3-6.1,28.3-13.5c12.3-11.2,17.9-13.3,38.3-15.8c13.3-1.6,15.3-5.8,29.6-1.4c15.1,4.6,25.4,17.4,42.2,11.3 c15-5.4,16.2-23.7,30-28.1c10.4-3.3,30.6,5.8,40,8.9c20.7,7,31.9,12,43.9,29.7c-7.8,3.1-133.9,24.5-151.4,10.4 c-4.4,0-8.8,5.6-13.6,9.3c-7.5,3.5-23.4,0-33.6,3.7c-6.8,2.7-13.2,6.1-19.1,10.4c-3,0.1-5.6-1.1-7.8-3.5c-4.4,1.6-9,10-12.6,10.8 c-7.6,1.6-21.9,1.8-29.4,2.8c-39.6,5.4-57.1,9-98.5,9.2c0.8,1.7-14.3,3.9-13,5.3c-26.2,4.5-63.4-3.5-83.9-4.1 c-40.8-1.1-85.5,0.1-125.7-3.9c-32.5-3.3-62.3,1.8-95.2-1.2c-7.7-0.7-68.9-9.1-69.4-11.1C199.9,712.8,243.8,723.1,244.4,716.8z"></path> </g> <g> <path class="st1" d="M324.7,581.6c0.2-3.5-0.2,0.7,1.2-15.8c0.7-8.1,1.8-22,2.3-30.1c1.1-18.7-2.8-67.1-0.7-88.2 c1.7-16.7,5.9-35.2,8-54.1c2.7-23.5,5.3-44.2,9.3-66.6c2.2-12.4-1.3-20.3-2-33.3c-2-36.8,5.7-85.2,7.8-124.6 c1.1-20.9-5.3-65.2,6.4-81.5c17-23.9,26.5-5,28.6,12.4c5.3,43.2-3.7,90.6-2.9,131.4c0.8,40.6,0.1,86-1.9,123.6 c-1.8,33.6-7.4,66.3-8.1,99.1c-0.6,30.5-14.1,102.2-22.7,113.9c-1,3.4-18.6,19.2-22.3,19.2C326.7,585.2,325.7,583.4,324.7,581.6z"></path> </g> <g> <path class="st1" d="M477.4,449.2c-0.8-16.8-10-12.8-13.5-34.5c-4.3-26.4,35.3-34.8,46.9-48c15.8-18.1,27.9-18.2,38-9.5 c15.6,13.7,10.4,20,20.9,36.5c6.8,10.8,31.2,21.1,24.1,40.6c-2.3,6.2-33.7,17.4-43.8,24c-12.8,8.3-24.6,20.6-41.8,13.8 c-6.9-2.7-8.8-10.9-15.7-15.1C487.1,453.7,482.7,457.1,477.4,449.2z"></path> </g> </g> </svg> 